<?xml version="1.0" encoding="utf-8"?>
<!-- Generator: Adobe Illustrator 15.0.0, SVG Export Plug-In . SVG Version: 6.00 Build 0)  -->
<!DOCTYPE svg PUBLIC "-//W3C//DTD SVG 1.1//EN" "http://www.w3.org/Graphics/SVG/1.1/DTD/svg11.dtd">
<svg version="1.1" id="Layer_1" xmlns="http://www.w3.org/2000/svg" xmlns:xlink="http://www.w3.org/1999/xlink" x="0px" y="0px"
	 width="80px" height="80px" viewBox="0 0 80 80" enable-background="new 0 0 80 80" xml:space="preserve">
<g>
	<path d="M50.395,16.503c0,3.772-1.472,8.28-2.668,11.959c-2.115,6.348-4.14,12.788-4.415,19.503
		c-0.093,1.932-0.553,3.771-3.312,3.771c-2.76,0-3.22-1.84-3.312-3.771c-0.276-6.716-2.3-13.156-4.416-19.503
		c-1.196-3.68-2.668-8.188-2.668-11.959c0-6.532,3.22-12.695,10.396-12.695C47.175,3.808,50.395,9.971,50.395,16.503z M40.459,75.38
		c-5.704,0-9.936-4.6-9.936-9.936s4.232-9.936,9.936-9.936s9.935,4.6,9.935,9.936S46.163,75.38,40.459,75.38z"/>
</g>
</svg>
